<?xml version="1.0" encoding="utf-8"?>
<!-- Generator: Adobe Illustrator 24.3.0, SVG Export Plug-In . SVG Version: 6.00 Build 0)  -->
<svg version="1.1" id="Capa_1" xmlns="http://www.w3.org/2000/svg" xmlns:xlink="http://www.w3.org/1999/xlink" x="0px" y="0px"
	 viewBox="0 0 435 139" style="enable-background:new 0 0 435 139;" xml:space="preserve">
<style type="text/css">
	.st3{opacity:0.2;enable-background:new    ;}
</style>
<path d="M32.2,0c5.7,0,10.4,0.8,14.1,2.5c3.7,1.6,7,3.4,9.8,5.2v13.5c-2.7-2-6-3.9-9.9-5.7s-8.1-2.7-12.6-2.7
	c-2.9,0-5.9,0.5-9.1,1.5c-3.1,1-5.8,2.6-7.9,4.9c-2.1,2.2-3.2,5.1-3.2,8.6c0,3.9,1.4,6.8,4.2,8.8s6.2,4,10.1,5.8L41,48.5
	c6.7,3,11.7,6.3,15.1,10c3.4,3.7,5.1,8.6,5.1,14.6c0,5.3-1.5,10-4.6,14s-7.2,7.2-12.2,9.5C39.5,98.8,34,100,28,100
	c-5.6,0-10.8-1-15.5-2.9C7.7,95.2,3.6,93,0.1,90.6V77.1c3.8,2.6,8.1,5,13,7c4.9,2.1,10.4,3.1,16.6,3.1c4.8,0,9.1-1.2,12.8-3.6
	c3.7-2.4,5.5-5.7,5.5-10c0-2.4-0.8-4.5-2.2-6.2c-1.5-1.7-3.3-3.2-5.4-4.5c-2.1-1.3-4.2-2.3-6.2-3.2L18,52.5
	c-7-3.1-11.7-6.7-14.2-10.9S0,32.7,0,27.2c0-5.1,1.5-9.7,4.4-13.8c3-4.1,6.9-7.4,11.8-9.8C21.2,1.2,26.5,0,32.2,0z"/>
<path class="st3" d="M121.2,0l45.4,97.1h-15.7l-10.1-23.2H95.3L85,97.1H69.3L114.7,0H121.2z M118.2,22l-17.5,39.6h34.8L118.2,22z"/>
<path d="M197.7,1.5v84.8h53.5v12.3h-66.5V1.5H197.7z"/>
<path class="st3" d="M313.5,0l45.4,97.1h-15.7l-10.1-23.2h-45.5l-10.3,23.2h-15.7L307,0H313.5z M310.5,22L293,61.6h34.8L310.5,22z"
	/>
<path d="M400.4,0c5.7,0,10.4,0.8,14.1,2.5c3.7,1.6,7,3.4,9.8,5.2v13.5c-2.7-2-6-3.9-9.9-5.7s-8.1-2.7-12.6-2.7
	c-2.9,0-5.9,0.5-9.1,1.5c-3.1,1-5.8,2.6-7.9,4.9c-2.1,2.2-3.2,5.1-3.2,8.6c0,3.9,1.4,6.8,4.2,8.8c2.8,2,6.2,4,10.1,5.8l13.3,6.1
	c6.7,3,11.7,6.3,15.1,10s5.1,8.6,5.1,14.6c0,5.3-1.5,10-4.6,14s-7.2,7.2-12.2,9.5s-10.5,3.5-16.5,3.5c-5.6,0-10.8-1-15.5-2.9
	s-8.8-4.1-12.3-6.5V77.1c3.8,2.6,8.1,5,13,7c4.9,2.1,10.4,3.1,16.6,3.1c4.8,0,9.1-1.2,12.8-3.6c3.7-2.4,5.5-5.7,5.5-10
	c0-2.4-0.8-4.5-2.2-6.2c-1.5-1.7-3.3-3.2-5.4-4.5c-2.1-1.3-4.2-2.3-6.2-3.2l-16.1-7.2c-7-3.1-11.7-6.7-14.2-10.9s-3.8-8.9-3.8-14.3
	c0-5.1,1.5-9.7,4.4-13.8s6.9-7.4,11.8-9.8C389.4,1.2,394.7,0,400.4,0z"/>
<g>
	<path d="M69.3,97.1L114.7,0h6.5l45.4,97.1h-15.7L118.2,22L85,97.1H69.3z"/>
</g>
<g>
	<path d="M261.7,97.1L307,0h6.5l45.4,97.1h-15.7L310.5,22l-33.2,75.1H261.7z"/>
</g>
</svg>
