<?xml version="1.0" encoding="utf-8"?>
<!-- Generator: Adobe Illustrator 24.3.0, SVG Export Plug-In . SVG Version: 6.00 Build 0)  -->
<svg version="1.1" id="Capa_1" xmlns="http://www.w3.org/2000/svg" xmlns:xlink="http://www.w3.org/1999/xlink" x="0px" y="0px"
	 viewBox="0 0 115 139" style="enable-background:new 0 0 115 139;" xml:space="preserve">
<style type="text/css">
	.st3{opacity:0.2;}
	
</style>
<g class="st3">
	<path d="M13.2,0v96.9H0V0H13.2z"/>
</g>
<g>
	<path d="M7,0C4.6,0,2.3,0.2,0,0.6V1h0.1v13.3c2.3-0.4,4.6-0.7,7-0.7c20,0,36.2,16.2,36.2,36.2c0,20-16.2,36.2-36.2,36.2
		c-2.4,0-4.7-0.2-7-0.7v14.1C2.4,99.8,4.6,100,7,100c27.6,0,50-22.4,50-50S34.6,0,7,0z"/>
</g>
<g>
	<g>
		<path d="M103.8,13.6H53.2V0h50.6V13.6z"/>
	</g>
	<g>
		<path d="M103.8,99.3H53.2V85.8h50.6V99.3z"/>
	</g>
	<g>
		<path d="M103.8,56.5H67.3V42.9h36.5V56.5z"/>
	</g>
</g>
</svg>
