<?xml version="1.0" encoding="utf-8"?>
<!-- Generator: Adobe Illustrator 24.3.0, SVG Export Plug-In . SVG Version: 6.00 Build 0)  -->
<svg version="1.1" id="Capa_1" xmlns="http://www.w3.org/2000/svg" xmlns:xlink="http://www.w3.org/1999/xlink" x="0px" y="0px"
	 viewBox="0 0 320 139" style="enable-background:new 0 0 320 139;" xml:space="preserve">
<style type="text/css">
	.st3{opacity:0.2;}
	
</style>
<g>
	<path d="M38.9,0v95.5c0,8.5-1.4,15.5-4.2,21.1s-6.6,10.1-11.5,13.6c-4.8,3.4-10.4,6.3-16.7,8.6l-6.6-13c17-6.1,25.5-15.3,25.5-27.6
		V0H38.9z"/>
	<path class="st3" d="M110.1,0L157,100.3h-16.2l-10.5-24h-47l-10.6,24H56.5L103.4,0H110.1z M107,22.8L88.8,63.6h35.9L107,22.8z"/>
	<path d="M247.3,0l-46.9,100.3h-6.7L146.9,0h16.2l33.8,77.6L231.2,0H247.3z"/>
	<path class="st3" d="M312.5,87.6v12.7h-47.3V87.6h16.9V12.7h-16.9V0h47.3v12.7h-16.9v74.9H312.5z"/>
	<path d="M56.5,100.3L103.4,0h6.7L157,100.3h-16.2L107,22.8l-34.3,77.6L56.5,100.3L56.5,100.3z"/>
	<g>
		<path d="M295.7,0v100.1H282V0H295.7z"/>
	</g>
</g>
</svg>
