<?xml version="1.0" encoding="utf-8"?>
<!-- Generator: Adobe Illustrator 24.3.0, SVG Export Plug-In . SVG Version: 6.00 Build 0)  -->
<svg version="1.1" id="Capa_1" xmlns="http://www.w3.org/2000/svg" xmlns:xlink="http://www.w3.org/1999/xlink" x="0px" y="0px"
	 viewBox="0 0 560 288" style="enable-background:new 0 0 560 288;" xml:space="preserve">
<style type="text/css">
	.st0{fill:#FFFFFF;}
	.st1{opacity:0.2;fill:#FFFFFF;}
</style>
<g>
	<g>
		<path class="st0" d="M60.8,7.8v139.4c0,12.4-2,22.6-6.1,30.8c-4.1,8.2-9.6,14.7-16.7,19.8c-7.1,5-15.2,9.2-24.4,12.6l-9.6-19
			c24.8-8.9,37.1-22.3,37.1-40.2V7.8H60.8z"/>
		<path class="st1" d="M165.2,8.2l68.4,146.4H210l-15.3-35h-68.6l-15.5,35H87L155.4,8.2H165.2z M160.6,41.4l-26.4,59.6h52.4
			L160.6,41.4z"/>
		<path class="st0" d="M364.9,8.2l-68.4,146.4h-9.8L218.3,8.2h23.6l49.4,113.2l50-113.2H364.9z"/>
		<path class="st0" d="M426.5,6c8.6,0,15.7,1.2,21.3,3.7c5.6,2.5,10.5,5.1,14.7,7.9v20.3c-4.1-3.1-9-5.9-14.9-8.6
			c-5.8-2.7-12.2-4-19-4c-4.4,0-8.9,0.8-13.7,2.3c-4.7,1.5-8.7,4-11.9,7.3c-3.2,3.4-4.8,7.6-4.8,12.9c0,5.8,2.1,10.3,6.3,13.3
			c4.2,3.1,9.3,6,15.3,8.7l20.1,9.2c10,4.5,17.6,9.5,22.7,15.1c5.1,5.5,7.6,12.9,7.6,22.1c0,8-2.3,15-7,21.1
			c-4.7,6-10.8,10.8-18.4,14.3c-7.6,3.5-15.9,5.2-24.9,5.2c-8.4,0-16.2-1.5-23.4-4.4c-7.1-2.9-13.3-6.2-18.6-9.8v-20.3
			c5.7,3.9,12.2,7.5,19.6,10.6c7.4,3.1,15.7,4.7,25,4.7c7.3,0,13.7-1.8,19.2-5.5c5.5-3.6,8.3-8.7,8.3-15.1c0-3.6-1.1-6.8-3.4-9.4
			c-2.3-2.6-5-4.9-8.2-6.8c-3.2-1.9-6.3-3.5-9.4-4.8l-24.2-10.9c-10.5-4.7-17.6-10.1-21.4-16.4c-3.8-6.3-5.7-13.5-5.7-21.6
			c0-7.7,2.2-14.7,6.7-20.9c4.4-6.2,10.4-11.1,17.8-14.7C409.9,7.9,417.9,6,426.5,6z"/>
	</g>
	<g>
		<path class="st0" d="M87.1,154.6L155.5,8.3h9.8l68.4,146.4h-23.6L160.8,41.5l-50,113.2H87.1z"/>
	</g>
</g>
</svg>
