<?xml version="1.0" encoding="utf-8"?>
<!-- Generator: Adobe Illustrator 24.3.0, SVG Export Plug-In . SVG Version: 6.00 Build 0)  -->
<svg version="1.1" id="nav-logo" xmlns="http://www.w3.org/2000/svg" xmlns:xlink="http://www.w3.org/1999/xlink" x="0px" y="0px"
	 viewBox="0 0 560 288" style="enable-background:new 0 0 560 288;" xml:space="preserve">
<style type="text/css">
	.st0{fill:#FFFFFF;}
	.st1{opacity:0.2;fill:#FFFFFF;enable-background:new    ;}
</style>
<g>
	<g>
		<path class="st0" d="M71.5,45.1v165.7c0,14.7-2.4,26.9-7.3,36.6c-4.9,9.7-11.4,17.5-19.9,23.5c-8.4,5.9-18.1,10.9-29,15L4,263.4
			c29.5-10.6,44.1-26.5,44.1-47.8V45.1H71.5z"/>
		<path class="st1" d="M195.6,45.6l81.3,174h-28.1l-18.2-41.6h-81.6l-18.4,41.6h-28.1l81.3-174H195.6z M190.2,85.1l-31.4,70.9h62.3
			L190.2,85.1z"/>
		<path class="st0" d="M433.1,45.6l-81.3,174h-11.7l-81.3-174h28.1l58.7,134.6L405,45.6C405,45.6,433.1,45.6,433.1,45.6z"/>
		<path class="st0" d="M506.3,43c10.2,0,18.7,1.4,25.3,4.4s12.5,6.1,17.5,9.4v24.1c-4.9-3.7-10.7-7-17.7-10.2
			c-6.9-3.2-14.5-4.8-22.6-4.8c-5.2,0-10.6,1-16.3,2.7c-5.6,1.8-10.3,4.8-14.1,8.7c-3.8,4-5.7,9-5.7,15.3c0,6.9,2.5,12.2,7.5,15.8
			c5,3.7,11.1,7.1,18.2,10.3l23.9,10.9c11.9,5.3,20.9,11.3,27,18c6.1,6.5,9,15.3,9,26.3c0,9.5-2.7,17.8-8.3,25.1
			c-5.6,7.1-12.8,12.8-21.9,17c-9,4.2-18.9,6.2-29.6,6.2c-10,0-19.3-1.8-27.8-5.2c-8.4-3.4-15.8-7.4-22.1-11.7v-24.1
			c6.8,4.6,14.5,8.9,23.3,12.6c8.8,3.7,18.7,5.6,29.7,5.6c8.7,0,16.3-2.1,22.8-6.5c6.5-4.3,9.9-10.3,9.9-18c0-4.3-1.3-8.1-4-11.2
			c-2.7-3.1-5.9-5.8-9.7-8.1s-7.5-4.2-11.2-5.7l-28.8-13c-12.5-5.6-20.9-12-25.4-19.5c-4.5-7.5-6.8-16-6.8-25.7
			c0-9.2,2.6-17.5,8-24.8c5.2-7.4,12.4-13.2,21.2-17.5C486.6,45.3,496.1,43,506.3,43z"/>
	</g>
	<g>
		<path class="st0" d="M102.8,219.7l81.3-173.9h11.7l81.3,174H249L190.4,85.2L131,219.8h-28.2V219.7z"/>
	</g>
</g>
</svg>
